<svg width="80" height="80" xmlns="http://www.w3.org/2000/svg" viewBox="0 0 80 80">
   
  <ellipse fill="none" stroke-width="2" cx="39.60037" cy="37.09856" id="svg_1" rx="23.50425" ry="13.93161" stroke="black"/>
  <line transform="rotate(-3.56847 42.82 20.7526)" stroke="#000000" id="svg_3" y2="23.24193" x2="42.48362" y1="18.26331" x1="43.1564" stroke-width="2" fill="none"/>
  <line id="svg_4" y2="25.66396" x2="52.3063" y1="20.28167" x1="54.32466" stroke-width="2" stroke="#000000" fill="none"/>
  <line id="svg_5" y2="30.77713" x2="60.37974" y1="27.4132" x1="64.82013" stroke-width="2" stroke="#000000" fill="none"/>
  <line id="svg_6" y2="39.79247" x2="62.80177" y1="41.13805" x1="67.78039" stroke-width="2" stroke="#000000" fill="none"/>
  <line id="svg_19" y2="46.65489" x2="56.34302" y1="51.09528" x1="59.30328" stroke-width="2" stroke="#000000" fill="none"/>
  <line id="svg_20" y2="49.74971" x2="46.92401" y1="55.132" x1="48.13502" stroke-width="2" stroke="#000000" fill="none"/>
  <line id="svg_21" y2="50.55706" x2="37.10133" y1="55.80479" x1="36.5631" stroke-width="2" stroke="#000000" fill="none"/>
  <line stroke="#000000" id="svg_22" y2="49.07693" x2="27.81687" y1="53.78643" x1="25.5294" stroke-width="2" fill="none"/>
  <line transform="rotate(-8.22231 16.985 45.0402)" id="svg_23" y2="43.82919" x2="18.93609" y1="46.25122" x1="15.03393" stroke-width="2" stroke="#000000" fill="none"/>
  <line id="svg_24" y2="34.27562" x2="16.64862" y1="32.66094" x1="11.93911" stroke-width="2" stroke="#000000" fill="none"/>
  <line id="svg_25" y2="27.00953" x2="23.37648" y1="22.16547" x1="20.68534" stroke-width="2" stroke="#000000" fill="none"/>
  <line id="svg_26" y2="23.78016" x2="32.52638" y1="18.66698" x1="31.85359" stroke-width="2" stroke="#000000" fill="none"/>
</svg>
