<svg width="80" height="80" xmlns="http://www.w3.org/2000/svg" viewBox="0 0 80 80">
 <g>     <ellipse fill="none" stroke-width="2" cx="39.60037" cy="37.09856" id="svg_1" rx="23.50425" ry="13.93161" stroke-dasharray="5,5" stroke="black"/>
   <path transform="rotate(177.005 61.4632 44.9549)" id="svg_7" d="m61.181,49.19481l-3.92455,-3.99071l4.7241,-4.48902l3.68947,3.99634" opacity="NaN" stroke-width="2" stroke="black" fill="none"/>
   <path id="svg_8" d="m17.84769,33.24888l-3.92455,-3.99071l4.7241,-4.48902l3.68947,3.99634" opacity="NaN" stroke-width="2" stroke="black" fill="none"/>
   <path transform="rotate(40.62 37.4993 21.5315)" id="svg_9" d="m37.21705,25.7714l-3.92455,-3.99071l4.7241,-4.48902l3.68947,3.99634" opacity="NaN" stroke-width="2" stroke="black" fill="none"/>
   <path transform="rotate(56.3117 47.7696 22.3423)" id="svg_10" d="m47.48732,26.58221l-3.92455,-3.99071l4.7241,-4.48902l3.68947,3.99634" opacity="NaN" stroke-width="2" stroke="black" fill="none"/>
   <path transform="rotate(-157.066 52.4542 50.5405)" id="svg_11" d="m52.172,54.7804l-3.92455,-3.99071l4.7241,-4.48902l3.68947,3.99634" opacity="NaN" stroke-width="2" stroke="black" fill="none"/>
   <path transform="rotate(-138.287 41.9137 52.6126)" id="svg_12" d="m41.63146,56.85247l-3.92455,-3.99071l4.7241,-4.48902l3.68947,3.99634" opacity="NaN" stroke-width="2" stroke="black" fill="none"/>
   <path transform="rotate(-123.162 31.5533 51.982)" id="svg_13" d="m31.27111,56.22184l-3.92455,-3.99071l4.7241,-4.48902l3.68947,3.99634" opacity="NaN" stroke-width="2" stroke="black" fill="none"/>
   <path transform="rotate(-102.882 21.9137 48.018)" id="svg_14" d="m21.63147,52.25788l-3.92455,-3.99071l4.7241,-4.48902l3.68947,3.99634" opacity="NaN" stroke-width="2" stroke="black" fill="none"/>
   <path transform="rotate(-61.126 14.8867 39.7297)" id="svg_15" d="m14.60445,43.96959l-3.92455,-3.99071l4.7241,-4.48902l3.68947,3.99634" opacity="NaN" stroke-width="2" stroke="black" fill="none"/>
   <path transform="rotate(26.2433 27.1389 23.5135)" id="svg_16" d="m26.85669,27.75338l-3.92455,-3.99071l4.7241,-4.48902l3.68947,3.99634" opacity="NaN" stroke-width="2" stroke="black" fill="none"/>
   <path transform="rotate(123.812 64.4362 34.6847)" id="svg_17" d="m64.15398,38.92454l-3.92455,-3.99071l4.7241,-4.48902l3.68947,3.99634" opacity="NaN" stroke-width="2" stroke="black" fill="none"/>
   <path transform="rotate(76.4577 57.4993 26.1261)" id="svg_18" d="m57.21705,30.36599l-3.92455,-3.99071l4.7241,-4.48902l3.68947,3.99634" opacity="NaN" stroke-width="2" stroke="black" fill="none"/> </g>

</svg>
