<svg width="80" height="80" version='1.1' xmlns="http://www.w3.org/2000/svg">
  <path fill="transparent" stroke="black" stroke-width="2" d="
  m40,15 l23,40  h-46z
  m2.3,4 l8,-4.6
  m-5.7,8.6 l8,-4.6
  m-5.7,8.6 l8,-4.6
  m-5.7,8.6 l8,-4.6
  m-5.7,8.6 l8,-4.6
  m-5.7,8.6 l8,-4.6
  m-5.7,8.6 l8,-4.6
  m-5.7,8.6 l8,-4.6
  m-5.7,8.6 l8,-4.6
  m-8,8.6 v10
  m-4,-10 v10
  m-4,-10 v10
  m-4,-10 v10
  m-4,-10 v10
  m-4,-10 v10
  m-4,-10 v10
  m-4,-10 v10
  m-4,-10 v10
  m-4,-10 v10
  m-4,-10 v10
  m-2,-12.6 l-8,-4.6
  m10.3,0.6 l-8,-4.6
  m10.3,0.6 l-8,-4.6
  m10.3,0.6 l-8,-4.6
  m10.3,0.6 l-8,-4.6
  m10.3,0.6 l-8,-4.6
  m10.3,0.6 l-8,-4.6
  m10.3,0.6 l-8,-4.6
  m10.3,0.6 l-8,-4.6

  "/>
</svg>